# xmcd
#
# Track frame offsets: 
#        183
#        16608
#        26915
#        39378
#        51763
#        61850
#        74490
#        87995
#        104320
#        119390
#        133290
#        145743
#
# Disc length: 2076 seconds
#
# Revision: 0
# Processed by: cddbd v1.5.2PL0 Copyright (c) Steve Scherf et al.
# Submitted via: ExactAudioCopy v1.0b1
#
DISCID=a5081a0c
DTITLE=H. S. Krush - Krush on Country
DYEAR=1989
DGENRE=Country
TTITLE0=The Day Spoke For Us
TTITLE1=Wild In The Country
TTITLE2=Fraulein
TTITLE3=Ring Of Fire
TTITLE4=Song From Rio Bravo
TTITLE5=On Top Of The Mornin'
TTITLE6=God Must Be A Cowboy
TTITLE7=Your Cheatin' Heart
TTITLE8=Yearnin' For You
TTITLE9=Pretend I Never Happened
TTITLE10=Too Many Footprints
TTITLE11=Adios Amigo
EXTD=
EXTT0=
EXTT1=
EXTT2=
EXTT3=
EXTT4=
EXTT5=
EXTT6=
EXTT7=
EXTT8=
EXTT9=
EXTT10=
EXTT11=
PLAYORDER=
